<?xml version="1.0" encoding="UTF-8" standalone="no"?>
<!DOCTYPE svg PUBLIC "-//W3C//DTD SVG 1.1//EN"
 "http://www.w3.org/Graphics/SVG/1.1/DTD/svg11.dtd">
<!-- Generated by graphviz version 2.38.0 (20140413.2041)
 -->
<!-- Title: snakemake_dag Pages: 1 -->
<svg width="517pt" height="980pt"
 viewBox="0.00 0.00 516.99 980.00" xmlns="http://www.w3.org/2000/svg" xmlns:xlink="http://www.w3.org/1999/xlink">
<g id="graph0" class="graph" transform="scale(1 1) rotate(0) translate(4 976)">
<title>snakemake_dag</title>
<polygon fill="white" stroke="none" points="-4,4 -4,-976 512.993,-976 512.993,4 -4,4"/>
<!-- 0 -->
<g id="node1" class="node"><title>0</title>
<path fill="none" stroke="#56d8c1" stroke-width="2" d="M389.993,-36C389.993,-36 359.993,-36 359.993,-36 353.993,-36 347.993,-30 347.993,-24 347.993,-24 347.993,-12 347.993,-12 347.993,-6 353.993,-0 359.993,-0 359.993,-0 389.993,-0 389.993,-0 395.993,-0 401.993,-6 401.993,-12 401.993,-12 401.993,-24 401.993,-24 401.993,-30 395.993,-36 389.993,-36"/>
<text text-anchor="middle" x="374.993" y="-15.5" font-family="sans" font-size="10.00">all</text>
</g>
<!-- 1 -->
<g id="node2" class="node"><title>1</title>
<path fill="none" stroke="#88d856" stroke-width="2" d="M389.993,-108C389.993,-108 359.993,-108 359.993,-108 353.993,-108 347.993,-102 347.993,-96 347.993,-96 347.993,-84 347.993,-84 347.993,-78 353.993,-72 359.993,-72 359.993,-72 389.993,-72 389.993,-72 395.993,-72 401.993,-78 401.993,-84 401.993,-84 401.993,-96 401.993,-96 401.993,-102 395.993,-108 389.993,-108"/>
<text text-anchor="middle" x="374.993" y="-87.5" font-family="sans" font-size="10.00">report</text>
</g>
<!-- 1&#45;&gt;0 -->
<g id="edge1" class="edge"><title>1&#45;&gt;0</title>
<path fill="none" stroke="grey" stroke-width="2" d="M374.993,-71.6966C374.993,-63.9827 374.993,-54.7125 374.993,-46.1124"/>
<polygon fill="grey" stroke="grey" stroke-width="2" points="378.493,-46.1043 374.993,-36.1043 371.493,-46.1044 378.493,-46.1043"/>
</g>
<!-- 2 -->
<g id="node3" class="node"><title>2</title>
<path fill="none" stroke="#56a2d8" stroke-width="2" d="M361.493,-180C361.493,-180 274.493,-180 274.493,-180 268.493,-180 262.493,-174 262.493,-168 262.493,-168 262.493,-156 262.493,-156 262.493,-150 268.493,-144 274.493,-144 274.493,-144 361.493,-144 361.493,-144 367.493,-144 373.493,-150 373.493,-156 373.493,-156 373.493,-168 373.493,-168 373.493,-174 367.493,-180 361.493,-180"/>
<text text-anchor="middle" x="317.993" y="-159.5" font-family="sans" font-size="10.00">TMM_and_annotate</text>
</g>
<!-- 2&#45;&gt;1 -->
<g id="edge2" class="edge"><title>2&#45;&gt;1</title>
<path fill="none" stroke="grey" stroke-width="2" d="M332.082,-143.697C338.916,-135.305 347.249,-125.07 354.748,-115.861"/>
<polygon fill="grey" stroke="grey" stroke-width="2" points="357.464,-118.069 361.065,-108.104 352.036,-113.649 357.464,-118.069"/>
</g>
<!-- 3 -->
<g id="node4" class="node"><title>3</title>
<path fill="none" stroke="#56d8a2" stroke-width="2" d="M454.493,-180C454.493,-180 409.493,-180 409.493,-180 403.493,-180 397.493,-174 397.493,-168 397.493,-168 397.493,-156 397.493,-156 397.493,-150 403.493,-144 409.493,-144 409.493,-144 454.493,-144 454.493,-144 460.493,-144 466.493,-150 466.493,-156 466.493,-156 466.493,-168 466.493,-168 466.493,-174 460.493,-180 454.493,-180"/>
<text text-anchor="middle" x="431.993" y="-159.5" font-family="sans" font-size="10.00">plot_busco</text>
</g>
<!-- 3&#45;&gt;1 -->
<g id="edge3" class="edge"><title>3&#45;&gt;1</title>
<path fill="none" stroke="grey" stroke-width="2" d="M417.903,-143.697C411.069,-135.305 402.736,-125.07 395.237,-115.861"/>
<polygon fill="grey" stroke="grey" stroke-width="2" points="397.949,-113.649 388.92,-108.104 392.521,-118.069 397.949,-113.649"/>
</g>
<!-- 4 -->
<g id="node5" class="node"><title>4</title>
<path fill="none" stroke="#d8a456" stroke-width="2" d="M354.993,-252C354.993,-252 280.993,-252 280.993,-252 274.993,-252 268.993,-246 268.993,-240 268.993,-240 268.993,-228 268.993,-228 268.993,-222 274.993,-216 280.993,-216 280.993,-216 354.993,-216 354.993,-216 360.993,-216 366.993,-222 366.993,-228 366.993,-228 366.993,-240 366.993,-240 366.993,-246 360.993,-252 354.993,-252"/>
<text text-anchor="middle" x="317.993" y="-231.5" font-family="sans" font-size="10.00">quantify_salmon</text>
</g>
<!-- 4&#45;&gt;2 -->
<g id="edge4" class="edge"><title>4&#45;&gt;2</title>
<path fill="none" stroke="grey" stroke-width="2" d="M317.993,-215.697C317.993,-207.983 317.993,-198.712 317.993,-190.112"/>
<polygon fill="grey" stroke="grey" stroke-width="2" points="321.493,-190.104 317.993,-180.104 314.493,-190.104 321.493,-190.104"/>
</g>
<!-- 5 -->
<g id="node6" class="node"><title>5</title>
<path fill="none" stroke="#5673d8" stroke-width="2" d="M227.493,-252C227.493,-252 132.493,-252 132.493,-252 126.493,-252 120.493,-246 120.493,-240 120.493,-240 120.493,-228 120.493,-228 120.493,-222 126.493,-216 132.493,-216 132.493,-216 227.493,-216 227.493,-216 233.493,-216 239.493,-222 239.493,-228 239.493,-228 239.493,-240 239.493,-240 239.493,-246 233.493,-252 227.493,-252"/>
<text text-anchor="middle" x="179.993" y="-231.5" font-family="sans" font-size="10.00">annotate_orthofinder</text>
</g>
<!-- 5&#45;&gt;2 -->
<g id="edge5" class="edge"><title>5&#45;&gt;2</title>
<path fill="none" stroke="grey" stroke-width="2" d="M213.751,-215.876C232.212,-206.512 255.274,-194.814 275.01,-184.803"/>
<polygon fill="grey" stroke="grey" stroke-width="2" points="276.769,-187.835 284.104,-180.19 273.603,-181.592 276.769,-187.835"/>
</g>
<!-- 6 -->
<g id="node7" class="node"><title>6</title>
<path fill="none" stroke="#d86e56" stroke-width="2" d="M496.993,-324C496.993,-324 406.993,-324 406.993,-324 400.993,-324 394.993,-318 394.993,-312 394.993,-312 394.993,-300 394.993,-300 394.993,-294 400.993,-288 406.993,-288 406.993,-288 496.993,-288 496.993,-288 502.993,-288 508.993,-294 508.993,-300 508.993,-300 508.993,-312 508.993,-312 508.993,-318 502.993,-324 496.993,-324"/>
<text text-anchor="middle" x="451.993" y="-303.5" font-family="sans" font-size="10.00">transdecoder_busco</text>
</g>
<!-- 6&#45;&gt;3 -->
<g id="edge6" class="edge"><title>6&#45;&gt;3</title>
<path fill="none" stroke="grey" stroke-width="2" d="M449.58,-287.871C446.171,-263.67 439.91,-219.211 435.851,-190.393"/>
<polygon fill="grey" stroke="grey" stroke-width="2" points="439.274,-189.603 434.414,-180.189 432.343,-190.58 439.274,-189.603"/>
</g>
<!-- 7 -->
<g id="node8" class="node"><title>7</title>
<path fill="none" stroke="#70d856" stroke-width="2" d="M364.493,-324C364.493,-324 271.493,-324 271.493,-324 265.493,-324 259.493,-318 259.493,-312 259.493,-312 259.493,-300 259.493,-300 259.493,-294 265.493,-288 271.493,-288 271.493,-288 364.493,-288 364.493,-288 370.493,-288 376.493,-294 376.493,-300 376.493,-300 376.493,-312 376.493,-312 376.493,-318 370.493,-324 364.493,-324"/>
<text text-anchor="middle" x="317.993" y="-303.5" font-family="sans" font-size="10.00">transcriptome_index</text>
</g>
<!-- 7&#45;&gt;4 -->
<g id="edge7" class="edge"><title>7&#45;&gt;4</title>
<path fill="none" stroke="grey" stroke-width="2" d="M317.993,-287.697C317.993,-279.983 317.993,-270.712 317.993,-262.112"/>
<polygon fill="grey" stroke="grey" stroke-width="2" points="321.493,-262.104 317.993,-252.104 314.493,-262.104 321.493,-262.104"/>
</g>
<!-- 8 -->
<g id="node9" class="node"><title>8</title>
<path fill="none" stroke="#568ad8" stroke-width="2" d="M228.993,-324C228.993,-324 130.993,-324 130.993,-324 124.993,-324 118.993,-318 118.993,-312 118.993,-312 118.993,-300 118.993,-300 118.993,-294 124.993,-288 130.993,-288 130.993,-288 228.993,-288 228.993,-288 234.993,-288 240.993,-294 240.993,-300 240.993,-300 240.993,-312 240.993,-312 240.993,-318 234.993,-324 228.993,-324"/>
<text text-anchor="middle" x="179.993" y="-303.5" font-family="sans" font-size="10.00">orthologs_orthofinder</text>
</g>
<!-- 8&#45;&gt;5 -->
<g id="edge9" class="edge"><title>8&#45;&gt;5</title>
<path fill="none" stroke="grey" stroke-width="2" d="M179.993,-287.697C179.993,-279.983 179.993,-270.712 179.993,-262.112"/>
<polygon fill="grey" stroke="grey" stroke-width="2" points="183.493,-262.104 179.993,-252.104 176.493,-262.104 183.493,-262.104"/>
</g>
<!-- 9 -->
<g id="node10" class="node"><title>9</title>
<path fill="none" stroke="#d88d56" stroke-width="2" d="M230.993,-828C230.993,-828 182.993,-828 182.993,-828 176.993,-828 170.993,-822 170.993,-816 170.993,-816 170.993,-804 170.993,-804 170.993,-798 176.993,-792 182.993,-792 182.993,-792 230.993,-792 230.993,-792 236.993,-792 242.993,-798 242.993,-804 242.993,-804 242.993,-816 242.993,-816 242.993,-822 236.993,-828 230.993,-828"/>
<text text-anchor="middle" x="206.993" y="-807.5" font-family="sans" font-size="10.00">busco_prep</text>
</g>
<!-- 9&#45;&gt;5 -->
<g id="edge8" class="edge"><title>9&#45;&gt;5</title>
<path fill="none" stroke="grey" stroke-width="2" d="M205.145,-792C201.068,-760.904 188.978,-693.848 156.993,-648 141.938,-626.42 124.053,-634.241 109.993,-612 88.3796,-577.812 90.9925,-563.447 90.9925,-523 90.9925,-523 90.9925,-523 90.9925,-377 90.9925,-336.553 88.2843,-322.128 109.993,-288 117.49,-276.213 128.59,-266.074 139.752,-257.912"/>
<polygon fill="grey" stroke="grey" stroke-width="2" points="141.993,-260.619 148.241,-252.062 138.021,-254.855 141.993,-260.619"/>
</g>
<!-- 9&#45;&gt;6 -->
<g id="edge11" class="edge"><title>9&#45;&gt;6</title>
<path fill="none" stroke="grey" stroke-width="2" d="M243.208,-792.932C286.156,-771.123 351.993,-727.78 351.993,-667 351.993,-667 351.993,-667 351.993,-449 351.993,-400.492 391.483,-356.874 420.832,-331.156"/>
<polygon fill="grey" stroke="grey" stroke-width="2" points="423.444,-333.529 428.799,-324.387 418.912,-328.194 423.444,-333.529"/>
</g>
<!-- 10 -->
<g id="node11" class="node"><title>10</title>
<path fill="none" stroke="#a7d856" stroke-width="2" d="M447.993,-756C447.993,-756 391.993,-756 391.993,-756 385.993,-756 379.993,-750 379.993,-744 379.993,-744 379.993,-732 379.993,-732 379.993,-726 385.993,-720 391.993,-720 391.993,-720 447.993,-720 447.993,-720 453.993,-720 459.993,-726 459.993,-732 459.993,-732 459.993,-744 459.993,-744 459.993,-750 453.993,-756 447.993,-756"/>
<text text-anchor="middle" x="419.993" y="-735.5" font-family="sans" font-size="10.00">trinity_busco</text>
</g>
<!-- 9&#45;&gt;10 -->
<g id="edge16" class="edge"><title>9&#45;&gt;10</title>
<path fill="none" stroke="grey" stroke-width="2" d="M243.125,-797.125C278.03,-785.655 331.187,-768.185 370.114,-755.392"/>
<polygon fill="grey" stroke="grey" stroke-width="2" points="371.277,-758.694 379.684,-752.247 369.091,-752.044 371.277,-758.694"/>
</g>
<!-- 18 -->
<g id="node19" class="node"><title>18</title>
<path fill="none" stroke="#59d856" stroke-width="2" d="M136.993,-756C136.993,-756 38.9925,-756 38.9925,-756 32.9925,-756 26.9925,-750 26.9925,-744 26.9925,-744 26.9925,-732 26.9925,-732 26.9925,-726 32.9925,-720 38.9925,-720 38.9925,-720 136.993,-720 136.993,-720 142.993,-720 148.993,-726 148.993,-732 148.993,-732 148.993,-744 148.993,-744 148.993,-750 142.993,-756 136.993,-756"/>
<text text-anchor="middle" x="87.9925" y="-735.5" font-family="sans" font-size="10.00">AddHomologyBLASTp</text>
</g>
<!-- 9&#45;&gt;18 -->
<g id="edge26" class="edge"><title>9&#45;&gt;18</title>
<path fill="none" stroke="grey" stroke-width="2" d="M177.882,-791.876C162.323,-782.724 142.974,-771.342 126.217,-761.485"/>
<polygon fill="grey" stroke="grey" stroke-width="2" points="127.609,-758.243 117.215,-756.19 124.06,-764.277 127.609,-758.243"/>
</g>
<!-- 10&#45;&gt;6 -->
<g id="edge12" class="edge"><title>10&#45;&gt;6</title>
<path fill="none" stroke="grey" stroke-width="2" d="M424.242,-719.634C430.378,-692.993 440.993,-640.356 440.993,-595 440.993,-595 440.993,-595 440.993,-449 440.993,-408.876 445.412,-362.565 448.649,-334.032"/>
<polygon fill="grey" stroke="grey" stroke-width="2" points="452.134,-334.355 449.819,-324.016 445.182,-333.542 452.134,-334.355"/>
</g>
<!-- 11 -->
<g id="node12" class="node"><title>11</title>
<path fill="none" stroke="#56c1d8" stroke-width="2" d="M312.493,-396C312.493,-396 141.493,-396 141.493,-396 135.493,-396 129.493,-390 129.493,-384 129.493,-384 129.493,-372 129.493,-372 129.493,-366 135.493,-360 141.493,-360 141.493,-360 312.493,-360 312.493,-360 318.493,-360 324.493,-366 324.493,-372 324.493,-372 324.493,-384 324.493,-384 324.493,-390 318.493,-396 312.493,-396"/>
<text text-anchor="middle" x="226.993" y="-375.5" font-family="sans" font-size="10.00">nr95_clean_transdecoder_predict_aa</text>
</g>
<!-- 11&#45;&gt;6 -->
<g id="edge10" class="edge"><title>11&#45;&gt;6</title>
<path fill="none" stroke="grey" stroke-width="2" d="M281.746,-359.966C313.594,-350.057 353.912,-337.514 387.318,-327.121"/>
<polygon fill="grey" stroke="grey" stroke-width="2" points="388.485,-330.424 396.994,-324.111 386.405,-323.74 388.485,-330.424"/>
</g>
<!-- 11&#45;&gt;7 -->
<g id="edge13" class="edge"><title>11&#45;&gt;7</title>
<path fill="none" stroke="grey" stroke-width="2" d="M249.487,-359.697C260.948,-350.881 275.051,-340.032 287.476,-330.474"/>
<polygon fill="grey" stroke="grey" stroke-width="2" points="289.965,-332.976 295.757,-324.104 285.697,-327.427 289.965,-332.976"/>
</g>
<!-- 11&#45;&gt;8 -->
<g id="edge14" class="edge"><title>11&#45;&gt;8</title>
<path fill="none" stroke="grey" stroke-width="2" d="M215.375,-359.697C209.854,-351.474 203.146,-341.483 197.061,-332.421"/>
<polygon fill="grey" stroke="grey" stroke-width="2" points="199.957,-330.456 191.477,-324.104 194.145,-334.358 199.957,-330.456"/>
</g>
<!-- 12 -->
<g id="node13" class="node"><title>12</title>
<path fill="none" stroke="#d85656" stroke-width="2" d="M184.993,-900C184.993,-900 110.993,-900 110.993,-900 104.993,-900 98.9925,-894 98.9925,-888 98.9925,-888 98.9925,-876 98.9925,-876 98.9925,-870 104.993,-864 110.993,-864 110.993,-864 184.993,-864 184.993,-864 190.993,-864 196.993,-870 196.993,-876 196.993,-876 196.993,-888 196.993,-888 196.993,-894 190.993,-900 184.993,-900"/>
<text text-anchor="middle" x="147.993" y="-879.5" font-family="sans" font-size="10.00">rename_headers</text>
</g>
<!-- 12&#45;&gt;9 -->
<g id="edge15" class="edge"><title>12&#45;&gt;9</title>
<path fill="none" stroke="grey" stroke-width="2" d="M162.577,-863.697C169.65,-855.305 178.276,-845.07 186.038,-835.861"/>
<polygon fill="grey" stroke="grey" stroke-width="2" points="188.807,-838.006 192.576,-828.104 183.455,-833.495 188.807,-838.006"/>
</g>
<!-- 12&#45;&gt;10 -->
<g id="edge17" class="edge"><title>12&#45;&gt;10</title>
<path fill="none" stroke="grey" stroke-width="2" d="M181.785,-863.949C202.162,-853.625 228.616,-840.148 251.993,-828 295.496,-805.394 345.074,-779.058 379.032,-760.932"/>
<polygon fill="grey" stroke="grey" stroke-width="2" points="381.006,-763.846 388.177,-756.047 377.708,-757.671 381.006,-763.846"/>
</g>
<!-- 17 -->
<g id="node18" class="node"><title>17</title>
<path fill="none" stroke="#56d8d8" stroke-width="2" d="M136.493,-684C136.493,-684 23.4925,-684 23.4925,-684 17.4925,-684 11.4925,-678 11.4925,-672 11.4925,-672 11.4925,-660 11.4925,-660 11.4925,-654 17.4925,-648 23.4925,-648 23.4925,-648 136.493,-648 136.493,-648 142.493,-648 148.493,-654 148.493,-660 148.493,-660 148.493,-672 148.493,-672 148.493,-678 142.493,-684 136.493,-684"/>
<text text-anchor="middle" x="79.9925" y="-663.5" font-family="sans" font-size="10.00">transdecoder_predict_aa</text>
</g>
<!-- 12&#45;&gt;17 -->
<g id="edge25" class="edge"><title>12&#45;&gt;17</title>
<path fill="none" stroke="grey" stroke-width="2" d="M98.6717,-874.535C69.9432,-867.957 35.9411,-854.7 17.9925,-828 -8.78605,-788.164 -2.09357,-763.595 17.9925,-720 23.3164,-708.445 32.5398,-698.473 42.27,-690.395"/>
<polygon fill="grey" stroke="grey" stroke-width="2" points="44.7031,-692.939 50.4879,-684.063 40.4305,-687.394 44.7031,-692.939"/>
</g>
<!-- 19 -->
<g id="node20" class="node"><title>19</title>
<path fill="none" stroke="#d6d856" stroke-width="2" d="M140.493,-828C140.493,-828 39.4925,-828 39.4925,-828 33.4925,-828 27.4925,-822 27.4925,-816 27.4925,-816 27.4925,-804 27.4925,-804 27.4925,-798 33.4925,-792 39.4925,-792 39.4925,-792 140.493,-792 140.493,-792 146.493,-792 152.493,-798 152.493,-804 152.493,-804 152.493,-816 152.493,-816 152.493,-822 146.493,-828 140.493,-828"/>
<text text-anchor="middle" x="89.9925" y="-807.5" font-family="sans" font-size="10.00">transdecoder_longorfs</text>
</g>
<!-- 12&#45;&gt;19 -->
<g id="edge28" class="edge"><title>12&#45;&gt;19</title>
<path fill="none" stroke="grey" stroke-width="2" d="M133.655,-863.697C126.702,-855.305 118.222,-845.07 110.592,-835.861"/>
<polygon fill="grey" stroke="grey" stroke-width="2" points="113.24,-833.571 104.165,-828.104 107.85,-838.038 113.24,-833.571"/>
</g>
<!-- 13 -->
<g id="node14" class="node"><title>13</title>
<path fill="none" stroke="#d8bc56" stroke-width="2" d="M296.993,-468C296.993,-468 156.993,-468 156.993,-468 150.993,-468 144.993,-462 144.993,-456 144.993,-456 144.993,-444 144.993,-444 144.993,-438 150.993,-432 156.993,-432 156.993,-432 296.993,-432 296.993,-432 302.993,-432 308.993,-438 308.993,-444 308.993,-444 308.993,-456 308.993,-456 308.993,-462 302.993,-468 296.993,-468"/>
<text text-anchor="middle" x="226.993" y="-447.5" font-family="sans" font-size="10.00">nr95_transdecoder_predict_aa</text>
</g>
<!-- 13&#45;&gt;11 -->
<g id="edge18" class="edge"><title>13&#45;&gt;11</title>
<path fill="none" stroke="grey" stroke-width="2" d="M226.993,-431.697C226.993,-423.983 226.993,-414.712 226.993,-406.112"/>
<polygon fill="grey" stroke="grey" stroke-width="2" points="230.493,-406.104 226.993,-396.104 223.493,-406.104 230.493,-406.104"/>
</g>
<!-- 14 -->
<g id="node15" class="node"><title>14</title>
<path fill="none" stroke="#56d873" stroke-width="2" d="M162.993,-972C162.993,-972 132.993,-972 132.993,-972 126.993,-972 120.993,-966 120.993,-960 120.993,-960 120.993,-948 120.993,-948 120.993,-942 126.993,-936 132.993,-936 132.993,-936 162.993,-936 162.993,-936 168.993,-936 174.993,-942 174.993,-948 174.993,-948 174.993,-960 174.993,-960 174.993,-966 168.993,-972 162.993,-972"/>
<text text-anchor="middle" x="147.993" y="-951.5" font-family="sans" font-size="10.00">denovo</text>
</g>
<!-- 14&#45;&gt;12 -->
<g id="edge19" class="edge"><title>14&#45;&gt;12</title>
<path fill="none" stroke="grey" stroke-width="2" d="M147.993,-935.697C147.993,-927.983 147.993,-918.712 147.993,-910.112"/>
<polygon fill="grey" stroke="grey" stroke-width="2" points="151.493,-910.104 147.993,-900.104 144.493,-910.104 151.493,-910.104"/>
</g>
<!-- 15 -->
<g id="node16" class="node"><title>15</title>
<path fill="none" stroke="#bed856" stroke-width="2" d="M200.993,-612C200.993,-612 130.993,-612 130.993,-612 124.993,-612 118.993,-606 118.993,-600 118.993,-600 118.993,-588 118.993,-588 118.993,-582 124.993,-576 130.993,-576 130.993,-576 200.993,-576 200.993,-576 206.993,-576 212.993,-582 212.993,-588 212.993,-588 212.993,-600 212.993,-600 212.993,-606 206.993,-612 200.993,-612"/>
<text text-anchor="middle" x="165.993" y="-591.5" font-family="sans" font-size="10.00">cluster_cdhitest</text>
</g>
<!-- 15&#45;&gt;13 -->
<g id="edge20" class="edge"><title>15&#45;&gt;13</title>
<path fill="none" stroke="grey" stroke-width="2" d="M160.361,-575.986C155.221,-557.342 149.952,-527.025 160.993,-504 166.658,-492.185 176.383,-482.171 186.653,-474.136"/>
<polygon fill="grey" stroke="grey" stroke-width="2" points="188.903,-476.828 194.939,-468.12 184.791,-471.163 188.903,-476.828"/>
</g>
<!-- 16 -->
<g id="node17" class="node"><title>16</title>
<path fill="none" stroke="#56d88a" stroke-width="2" d="M309.993,-540C309.993,-540 181.993,-540 181.993,-540 175.993,-540 169.993,-534 169.993,-528 169.993,-528 169.993,-516 169.993,-516 169.993,-510 175.993,-504 181.993,-504 181.993,-504 309.993,-504 309.993,-504 315.993,-504 321.993,-510 321.993,-516 321.993,-516 321.993,-528 321.993,-528 321.993,-534 315.993,-540 309.993,-540"/>
<text text-anchor="middle" x="245.993" y="-519.5" font-family="sans" font-size="10.00">nr95_transdecoder_longorfs</text>
</g>
<!-- 15&#45;&gt;16 -->
<g id="edge23" class="edge"><title>15&#45;&gt;16</title>
<path fill="none" stroke="grey" stroke-width="2" d="M185.768,-575.697C195.746,-566.965 208.003,-556.24 218.849,-546.75"/>
<polygon fill="grey" stroke="grey" stroke-width="2" points="221.224,-549.323 226.445,-540.104 216.614,-544.055 221.224,-549.323"/>
</g>
<!-- 16&#45;&gt;13 -->
<g id="edge21" class="edge"><title>16&#45;&gt;13</title>
<path fill="none" stroke="grey" stroke-width="2" d="M241.296,-503.697C239.179,-495.898 236.631,-486.509 234.275,-477.829"/>
<polygon fill="grey" stroke="grey" stroke-width="2" points="237.633,-476.838 231.635,-468.104 230.877,-478.672 237.633,-476.838"/>
</g>
<!-- 17&#45;&gt;15 -->
<g id="edge22" class="edge"><title>17&#45;&gt;15</title>
<path fill="none" stroke="grey" stroke-width="2" d="M101.251,-647.697C112.082,-638.881 125.41,-628.032 137.153,-618.474"/>
<polygon fill="grey" stroke="grey" stroke-width="2" points="139.432,-621.132 144.979,-612.104 135.014,-615.703 139.432,-621.132"/>
</g>
<!-- 18&#45;&gt;17 -->
<g id="edge24" class="edge"><title>18&#45;&gt;17</title>
<path fill="none" stroke="grey" stroke-width="2" d="M86.015,-719.697C85.1334,-711.983 84.074,-702.712 83.0911,-694.112"/>
<polygon fill="grey" stroke="grey" stroke-width="2" points="86.5602,-693.642 81.9473,-684.104 79.6055,-694.437 86.5602,-693.642"/>
</g>
<!-- 19&#45;&gt;18 -->
<g id="edge27" class="edge"><title>19&#45;&gt;18</title>
<path fill="none" stroke="grey" stroke-width="2" d="M89.4982,-791.697C89.2778,-783.983 89.0129,-774.712 88.7672,-766.112"/>
<polygon fill="grey" stroke="grey" stroke-width="2" points="92.2655,-766 88.4812,-756.104 85.2684,-766.2 92.2655,-766"/>
</g>
</g>
</svg>
